<?xml version="1.0" encoding="utf-8"?>
<!-- Generator: Adobe Illustrator 19.0.0, SVG Export Plug-In . SVG Version: 6.00 Build 0)  -->
<svg version="1.1" id="Layer_1" xmlns="http://www.w3.org/2000/svg" xmlns:xlink="http://www.w3.org/1999/xlink" x="0px" y="0px"
	 viewBox="-1756 1568.2 9.8 13.9" style="enable-background:new -1756 1568.2 9.8 13.9;" xml:space="preserve">
<style type="text/css">
	.st0{opacity:0.19;enable-background:new    ;}
	.st1{fill:#4A7EB8;}
	.st2{fill:#256299;}
	.st3{fill:#105299;}
</style>
<g>
	<ellipse class="st0" cx="-1751.1" cy="1581.1" rx="3" ry="1"/>
	<path class="st1" d="M-1751.1,1568.2c-2.7,0-4.9,2.2-4.9,4.8c0,2.6,4.9,8.1,4.9,8.1s4.9-5.4,4.9-8.1
		C-1746.2,1570.3-1748.4,1568.2-1751.1,1568.2z"/>
	<circle class="st2" cx="-1751.1" cy="1572.7" r="1.2"/>
	<path class="st3" d="M-1751.1,1571.7c0.6,0,1.1,0.5,1.2,1.1c0-0.1,0-0.1,0-0.1c0-0.7-0.5-1.2-1.2-1.2c-0.7,0-1.2,0.5-1.2,1.2
		c0,0.1,0,0.1,0,0.1C-1752.2,1572.2-1751.7,1571.7-1751.1,1571.7z"/>
</g>
</svg>
