<?xml version="1.0" encoding="utf-8"?>
<!-- Generator: Adobe Illustrator 19.0.0, SVG Export Plug-In . SVG Version: 6.00 Build 0)  -->
<svg version="1.1" id="Layer_1" xmlns="http://www.w3.org/2000/svg" xmlns:xlink="http://www.w3.org/1999/xlink" x="0px" y="0px"
	 viewBox="0 0 849.9 139.8" style="enable-background:new 0 0 849.9 139.8;" xml:space="preserve">
<style type="text/css">
	.st0{fill:#FFFFFF;}
	.st1{fill:url(#SVGID_1_);}
	.st2{fill:url(#SVGID_2_);}
</style>
<g>
	<path class="st0" d="M321.3,92h1.7v5.5h11.5V92h1.7v12.7h-1.7v-5.8H323v5.8h-1.7V92z"/>
	<path class="st0" d="M342.3,92h12.5v1.4H344v4.1h10.3v1.4H344v4.4h10.8v1.4h-12.6V92z"/>
	<path class="st0" d="M366.2,92h2.1l7.6,12.7H374l-1.6-2.7h-10.2l-1.6,2.7h-1.9L366.2,92z M367.3,93.4l-4.3,7.2h8.5L367.3,93.4z"/>
	<path class="st0" d="M384.2,93.4h-6.4V92h14.6v1.4h-6.4v11.3h-1.7V93.4z"/>
	<path class="st0" d="M397.1,92h1.7v12.7h-1.7V92z"/>
	<path class="st0" d="M404.7,92h2.6l11.6,11.2V92h1.7v12.7h-2.6l-11.6-11.2v11.2h-1.7V92z"/>
	<path class="st0" d="M442.2,100.2c0,0.9-0.1,1.6-0.2,2.2c-0.2,0.6-0.4,1.1-0.7,1.4c-0.3,0.4-0.8,0.6-1.3,0.8
		c-0.5,0.2-1.2,0.2-2,0.2h-7.1c-0.9,0-1.6-0.1-2.2-0.3c-0.6-0.2-1-0.5-1.4-0.9c-0.4-0.4-0.6-0.9-0.7-1.5c-0.1-0.6-0.2-1.3-0.2-2.1
		v-3.5c0-0.8,0.1-1.5,0.2-2.1c0.1-0.6,0.4-1.1,0.7-1.5c0.4-0.4,0.8-0.7,1.4-0.9c0.6-0.2,1.3-0.3,2.2-0.3h6.5c0.6,0,1.1,0,1.7,0.1
		c0.6,0.1,1.1,0.3,1.5,0.5c0.4,0.3,0.8,0.6,1.1,1.1c0.3,0.5,0.4,1,0.4,1.8v0.5h-1.6c0-0.6-0.1-1.1-0.2-1.4c-0.1-0.3-0.4-0.6-0.7-0.8
		c-0.4-0.2-0.9-0.3-1.5-0.3c-0.6,0-1.5-0.1-2.6-0.1h-4.5c-0.4,0-0.8,0-1.2,0.1c-0.4,0.1-0.7,0.2-0.9,0.4c-0.3,0.2-0.5,0.5-0.6,0.8
		c-0.2,0.4-0.2,0.8-0.2,1.4v4.8c0,0.5,0.1,1,0.2,1.3c0.2,0.4,0.4,0.6,0.6,0.8c0.3,0.2,0.6,0.3,0.9,0.4c0.4,0.1,0.7,0.1,1.2,0.1h6.7
		c0.9,0,1.5-0.2,2-0.5c0.5-0.3,0.7-1,0.7-1.8v-1.3h-6.5v-1.4h8.2V100.2z"/>
	<path class="st0" d="M473.4,103.5c-0.2,0.3-0.4,0.5-0.7,0.7c-0.3,0.2-0.6,0.3-1,0.4c-0.4,0.1-0.8,0.2-1.2,0.2c-0.4,0-0.8,0-1.3,0
		H463c-0.9,0-1.7-0.1-2.3-0.2c-0.6-0.2-1.1-0.4-1.4-0.8c-0.3-0.3-0.6-0.8-0.7-1.3c-0.1-0.5-0.2-1.2-0.2-1.9c0-0.6,0-1.1,0.1-1.5
		c0.1-0.4,0.2-0.8,0.5-1.1c0.2-0.3,0.6-0.5,0.9-0.6c0.4-0.1,0.9-0.2,1.5-0.2v0c-0.3-0.2-0.5-0.4-0.7-0.5c-0.2-0.1-0.3-0.3-0.4-0.5
		c-0.1-0.2-0.2-0.4-0.2-0.7c0-0.3-0.1-0.6-0.1-1.1c0-0.5,0.1-0.8,0.2-1.2c0.1-0.3,0.3-0.6,0.6-0.8c0.3-0.2,0.6-0.4,0.9-0.5
		c0.3-0.1,0.7-0.1,1.2-0.1h6.2c0.6,0,1.1,0.1,1.5,0.2c0.4,0.1,0.8,0.3,1,0.6c0.3,0.2,0.5,0.5,0.6,0.9c0.1,0.4,0.2,0.7,0.2,1.2v1.1
		h-1.6v-0.9c0-0.6-0.2-1-0.5-1.2c-0.3-0.2-0.7-0.3-1.2-0.3h-5.7c-0.3,0-0.6,0-0.8,0.1c-0.2,0.1-0.4,0.2-0.5,0.3
		c-0.1,0.1-0.2,0.2-0.2,0.4c0,0.2-0.1,0.3-0.1,0.6c0,0.2,0,0.4,0,0.5c0,0.2,0,0.3,0.1,0.4c0,0.1,0.1,0.2,0.2,0.3
		c0.1,0.1,0.2,0.2,0.4,0.3l9.8,5.2v-2.8h1.6v2.7c0,0.1,0,0.3,0,0.4c0,0.2,0,0.3-0.1,0.5l2.6,1.4l-0.6,1.3L473.4,103.5z M462.8,98
		h-0.5c-0.1,0-0.3,0-0.5,0.1c-0.2,0-0.5,0.1-0.7,0.3c-0.2,0.1-0.4,0.4-0.6,0.7c-0.2,0.3-0.3,0.7-0.3,1.2v0.9c0,0.4,0,0.7,0.1,1
		c0.1,0.3,0.2,0.5,0.4,0.7c0.2,0.2,0.5,0.4,0.9,0.5c0.4,0.1,0.9,0.2,1.5,0.2h5.9c0.8,0,1.5-0.1,2-0.2c0.5-0.1,0.8-0.3,0.9-0.6
		L462.8,98z"/>
	<path class="st0" d="M491.4,96.6c0-0.8,0.1-1.5,0.2-2.1c0.1-0.6,0.4-1.1,0.7-1.5c0.4-0.4,0.8-0.7,1.4-0.9c0.6-0.2,1.3-0.3,2.2-0.3
		h6.6c0.8,0,1.4,0.1,1.9,0.3c0.5,0.2,0.9,0.4,1.2,0.7c0.3,0.3,0.5,0.6,0.6,1c0.1,0.4,0.2,0.8,0.2,1.2v1.1H505v-0.6
		c0-0.5-0.1-1-0.2-1.3c-0.2-0.3-0.4-0.5-0.6-0.7c-0.3-0.1-0.6-0.2-0.9-0.3c-0.4,0-0.7-0.1-1.1-0.1h-6c-0.4,0-0.8,0-1.2,0.1
		c-0.4,0.1-0.7,0.2-0.9,0.4c-0.3,0.2-0.5,0.5-0.6,0.8c-0.2,0.4-0.2,0.8-0.2,1.4v4.8c0,0.5,0.1,1,0.2,1.3c0.2,0.4,0.4,0.6,0.6,0.8
		c0.3,0.2,0.6,0.3,0.9,0.4c0.4,0.1,0.7,0.1,1.2,0.1h6c0.6,0,1.1,0,1.4-0.1c0.4-0.1,0.7-0.2,0.9-0.4c0.2-0.2,0.4-0.4,0.5-0.7
		c0.1-0.3,0.1-0.6,0.1-1.1v-0.8h1.6v0.9c0,0.6-0.1,1.1-0.2,1.5c-0.1,0.4-0.3,0.8-0.6,1.1c-0.3,0.3-0.8,0.5-1.3,0.7
		c-0.6,0.1-1.3,0.2-2.2,0.2H496c-0.9,0-1.6-0.1-2.2-0.3c-0.6-0.2-1-0.5-1.4-0.9c-0.4-0.4-0.6-0.9-0.7-1.5c-0.1-0.6-0.2-1.3-0.2-2.1
		V96.6z"/>
	<path class="st0" d="M511.8,96.6c0-0.8,0.1-1.5,0.2-2.1c0.1-0.6,0.4-1.1,0.7-1.5c0.4-0.4,0.8-0.7,1.4-0.9c0.6-0.2,1.3-0.3,2.2-0.3
		h7.3c0.9,0,1.6,0.1,2.2,0.3c0.6,0.2,1,0.5,1.4,0.9c0.4,0.4,0.6,0.9,0.8,1.5c0.2,0.6,0.2,1.3,0.2,2.1v3.5c0,0.8-0.1,1.5-0.2,2.1
		c-0.2,0.6-0.4,1.1-0.8,1.5c-0.4,0.4-0.8,0.7-1.4,0.9c-0.6,0.2-1.3,0.3-2.2,0.3h-7.3c-0.9,0-1.6-0.1-2.2-0.3c-0.6-0.2-1-0.5-1.4-0.9
		c-0.4-0.4-0.6-0.9-0.7-1.5c-0.1-0.6-0.2-1.3-0.2-2.1V96.6z M526.5,96c0-0.6-0.1-1-0.2-1.4c-0.2-0.3-0.4-0.6-0.6-0.8
		c-0.3-0.2-0.6-0.3-0.9-0.4c-0.4-0.1-0.7-0.1-1.2-0.1h-7c-0.4,0-0.8,0-1.2,0.1c-0.4,0.1-0.7,0.2-0.9,0.4c-0.3,0.2-0.5,0.5-0.6,0.8
		c-0.2,0.4-0.2,0.8-0.2,1.4v4.8c0,0.5,0.1,1,0.2,1.3c0.2,0.4,0.4,0.6,0.6,0.8c0.3,0.2,0.6,0.3,0.9,0.4c0.4,0.1,0.7,0.1,1.2,0.1h7
		c0.4,0,0.8,0,1.2-0.1c0.4-0.1,0.7-0.2,0.9-0.4c0.3-0.2,0.5-0.5,0.6-0.8c0.2-0.4,0.2-0.8,0.2-1.3V96z"/>
	<path class="st0" d="M533.6,96.6c0-0.8,0.1-1.5,0.2-2.1c0.1-0.6,0.4-1.1,0.7-1.5c0.4-0.4,0.8-0.7,1.4-0.9c0.6-0.2,1.3-0.3,2.2-0.3
		h7.3c0.9,0,1.6,0.1,2.2,0.3c0.6,0.2,1,0.5,1.4,0.9c0.4,0.4,0.6,0.9,0.8,1.5c0.2,0.6,0.2,1.3,0.2,2.1v3.5c0,0.8-0.1,1.5-0.2,2.1
		c-0.2,0.6-0.4,1.1-0.8,1.5c-0.3,0.4-0.8,0.7-1.4,0.9c-0.6,0.2-1.3,0.3-2.2,0.3h-7.3c-0.9,0-1.6-0.1-2.2-0.3c-0.6-0.2-1-0.5-1.4-0.9
		c-0.4-0.4-0.6-0.9-0.7-1.5c-0.1-0.6-0.2-1.3-0.2-2.1V96.6z M548.2,96c0-0.6-0.1-1-0.2-1.4c-0.2-0.3-0.4-0.6-0.6-0.8
		c-0.3-0.2-0.6-0.3-0.9-0.4c-0.4-0.1-0.7-0.1-1.2-0.1h-7c-0.4,0-0.8,0-1.2,0.1c-0.4,0.1-0.7,0.2-0.9,0.4c-0.3,0.2-0.5,0.5-0.6,0.8
		c-0.2,0.4-0.2,0.8-0.2,1.4v4.8c0,0.5,0.1,1,0.2,1.3c0.2,0.4,0.4,0.6,0.6,0.8c0.3,0.2,0.6,0.3,0.9,0.4c0.4,0.1,0.7,0.1,1.2,0.1h7
		c0.4,0,0.8,0,1.2-0.1c0.4-0.1,0.7-0.2,0.9-0.4c0.3-0.2,0.5-0.5,0.6-0.8c0.2-0.4,0.2-0.8,0.2-1.3V96z"/>
	<path class="st0" d="M555.6,92h1.7v11.3h9.9v1.4h-11.6V92z"/>
	<path class="st0" d="M571.8,92h1.7v12.7h-1.7V92z"/>
	<path class="st0" d="M579.4,92h2.6l11.6,11.2V92h1.7v12.7h-2.6l-11.6-11.2v11.2h-1.7V92z"/>
	<path class="st0" d="M616.9,100.2c0,0.9-0.1,1.6-0.2,2.2c-0.2,0.6-0.4,1.1-0.7,1.4c-0.3,0.4-0.8,0.6-1.3,0.8
		c-0.5,0.2-1.2,0.2-2,0.2h-7.1c-0.9,0-1.6-0.1-2.2-0.3c-0.6-0.2-1-0.5-1.4-0.9c-0.4-0.4-0.6-0.9-0.7-1.5c-0.1-0.6-0.2-1.3-0.2-2.1
		v-3.5c0-0.8,0.1-1.5,0.2-2.1c0.1-0.6,0.4-1.1,0.7-1.5c0.4-0.4,0.8-0.7,1.4-0.9c0.6-0.2,1.3-0.3,2.2-0.3h6.5c0.6,0,1.1,0,1.7,0.1
		c0.6,0.1,1.1,0.3,1.5,0.5c0.4,0.3,0.8,0.6,1.1,1.1c0.3,0.5,0.4,1,0.4,1.8v0.5h-1.6c0-0.6-0.1-1.1-0.2-1.4c-0.1-0.3-0.4-0.6-0.7-0.8
		c-0.4-0.2-0.9-0.3-1.5-0.3c-0.6,0-1.5-0.1-2.6-0.1h-4.5c-0.4,0-0.8,0-1.2,0.1c-0.4,0.1-0.7,0.2-0.9,0.4c-0.3,0.2-0.5,0.5-0.6,0.8
		c-0.2,0.4-0.2,0.8-0.2,1.4v4.8c0,0.5,0.1,1,0.2,1.3c0.2,0.4,0.4,0.6,0.6,0.8c0.3,0.2,0.6,0.3,0.9,0.4c0.4,0.1,0.7,0.1,1.2,0.1h6.7
		c0.9,0,1.5-0.2,2-0.5c0.5-0.3,0.7-1,0.7-1.8v-1.3h-6.5v-1.4h8.2V100.2z"/>
	<path class="st0" d="M633.3,96.6c0-0.8,0.1-1.5,0.2-2.1c0.1-0.6,0.4-1.1,0.7-1.5c0.4-0.4,0.8-0.7,1.4-0.9c0.6-0.2,1.3-0.3,2.2-0.3
		h6.6c0.8,0,1.4,0.1,1.9,0.3c0.5,0.2,0.9,0.4,1.2,0.7c0.3,0.3,0.5,0.6,0.6,1c0.1,0.4,0.2,0.8,0.2,1.2v1.1h-1.5v-0.6
		c0-0.5-0.1-1-0.2-1.3c-0.2-0.3-0.4-0.5-0.6-0.7c-0.3-0.1-0.6-0.2-0.9-0.3c-0.4,0-0.7-0.1-1.1-0.1h-6c-0.4,0-0.8,0-1.2,0.1
		c-0.4,0.1-0.7,0.2-0.9,0.4c-0.3,0.2-0.5,0.5-0.6,0.8c-0.2,0.4-0.2,0.8-0.2,1.4v4.8c0,0.5,0.1,1,0.2,1.3c0.2,0.4,0.4,0.6,0.6,0.8
		c0.3,0.2,0.6,0.3,0.9,0.4c0.4,0.1,0.8,0.1,1.2,0.1h6c0.6,0,1.1,0,1.4-0.1c0.4-0.1,0.7-0.2,0.9-0.4c0.2-0.2,0.4-0.4,0.5-0.7
		c0.1-0.3,0.1-0.6,0.1-1.1v-0.8h1.6v0.9c0,0.6-0.1,1.1-0.2,1.5c-0.1,0.4-0.3,0.8-0.6,1.1c-0.3,0.3-0.8,0.5-1.3,0.7
		c-0.6,0.1-1.3,0.2-2.2,0.2h-6.5c-0.9,0-1.6-0.1-2.2-0.3c-0.6-0.2-1-0.5-1.4-0.9c-0.4-0.4-0.6-0.9-0.7-1.5c-0.1-0.6-0.2-1.3-0.2-2.1
		V96.6z"/>
	<path class="st0" d="M653.7,96.6c0-0.8,0.1-1.5,0.2-2.1c0.1-0.6,0.4-1.1,0.7-1.5c0.4-0.4,0.8-0.7,1.4-0.9c0.6-0.2,1.3-0.3,2.2-0.3
		h7.3c0.9,0,1.6,0.1,2.2,0.3c0.6,0.2,1,0.5,1.4,0.9c0.4,0.4,0.6,0.9,0.8,1.5c0.2,0.6,0.2,1.3,0.2,2.1v3.5c0,0.8-0.1,1.5-0.2,2.1
		c-0.2,0.6-0.4,1.1-0.8,1.5c-0.4,0.4-0.8,0.7-1.4,0.9c-0.6,0.2-1.3,0.3-2.2,0.3h-7.3c-0.9,0-1.6-0.1-2.2-0.3c-0.6-0.2-1-0.5-1.4-0.9
		c-0.4-0.4-0.6-0.9-0.7-1.5c-0.1-0.6-0.2-1.3-0.2-2.1V96.6z M668.4,96c0-0.6-0.1-1-0.2-1.4c-0.2-0.3-0.4-0.6-0.6-0.8
		c-0.3-0.2-0.6-0.3-0.9-0.4c-0.4-0.1-0.7-0.1-1.2-0.1h-7c-0.4,0-0.8,0-1.2,0.1c-0.4,0.1-0.7,0.2-0.9,0.4c-0.3,0.2-0.5,0.5-0.6,0.8
		c-0.2,0.4-0.2,0.8-0.2,1.4v4.8c0,0.5,0.1,1,0.2,1.3c0.2,0.4,0.4,0.6,0.6,0.8c0.3,0.2,0.6,0.3,0.9,0.4c0.4,0.1,0.7,0.1,1.2,0.1h7
		c0.4,0,0.8,0,1.2-0.1c0.4-0.1,0.7-0.2,0.9-0.4c0.3-0.2,0.5-0.5,0.6-0.8c0.2-0.4,0.2-0.8,0.2-1.3V96z"/>
	<path class="st0" d="M675.7,92h2.6l11.6,11.2V92h1.7v12.7H689l-11.6-11.2v11.2h-1.7V92z"/>
	<path class="st0" d="M702.6,93.4h-6.4V92h14.6v1.4h-6.4v11.3h-1.7V93.4z"/>
	<path class="st0" d="M715.2,92h10.2c0.9,0,1.7,0.1,2.2,0.2c0.6,0.2,1,0.4,1.3,0.7c0.3,0.3,0.5,0.7,0.6,1.1c0.1,0.5,0.1,1,0.1,1.6v1
		c0,0.4-0.1,0.8-0.2,1.1c-0.1,0.3-0.3,0.5-0.5,0.7c-0.2,0.2-0.5,0.3-0.7,0.4c-0.3,0.1-0.6,0.1-0.9,0.2v0c0.4,0.1,0.8,0.2,1.1,0.3
		c0.3,0.1,0.5,0.3,0.7,0.5c0.2,0.2,0.3,0.4,0.3,0.7c0.1,0.3,0.1,0.5,0.1,0.8v3.2h-1.6v-2.8c0-0.5-0.1-0.9-0.2-1.2
		c-0.1-0.3-0.3-0.5-0.5-0.7c-0.2-0.2-0.5-0.3-0.8-0.3c-0.3,0-0.7-0.1-1.1-0.1h-8.4v5h-1.7V92z M725.2,98.3c1,0,1.7-0.1,2.1-0.4
		c0.4-0.3,0.6-0.8,0.6-1.4v-1.2c0-0.3,0-0.6-0.1-0.9c-0.1-0.2-0.3-0.4-0.5-0.6c-0.2-0.1-0.6-0.3-1-0.3c-0.4-0.1-0.9-0.1-1.6-0.1
		h-7.8v4.9H725.2z"/>
	<path class="st0" d="M741.4,92h2.1l7.6,12.7h-2l-1.6-2.7h-10.2l-1.6,2.7h-1.9L741.4,92z M742.5,93.4l-4.3,7.2h8.5L742.5,93.4z"/>
	<path class="st0" d="M755.4,96.6c0-0.8,0.1-1.5,0.2-2.1c0.1-0.6,0.4-1.1,0.7-1.5c0.4-0.4,0.8-0.7,1.4-0.9c0.6-0.2,1.3-0.3,2.2-0.3
		h6.6c0.8,0,1.4,0.1,1.9,0.3c0.5,0.2,0.9,0.4,1.2,0.7c0.3,0.3,0.5,0.6,0.6,1c0.1,0.4,0.2,0.8,0.2,1.2v1.1H769v-0.6
		c0-0.5-0.1-1-0.2-1.3c-0.2-0.3-0.4-0.5-0.6-0.7c-0.3-0.1-0.6-0.2-0.9-0.3c-0.4,0-0.7-0.1-1.1-0.1h-6c-0.4,0-0.8,0-1.2,0.1
		c-0.4,0.1-0.7,0.2-0.9,0.4c-0.3,0.2-0.5,0.5-0.6,0.8c-0.2,0.4-0.2,0.8-0.2,1.4v4.8c0,0.5,0.1,1,0.2,1.3c0.2,0.4,0.4,0.6,0.6,0.8
		c0.3,0.2,0.6,0.3,0.9,0.4c0.4,0.1,0.8,0.1,1.2,0.1h6c0.6,0,1.1,0,1.4-0.1c0.4-0.1,0.7-0.2,0.9-0.4c0.2-0.2,0.4-0.4,0.5-0.7
		c0.1-0.3,0.1-0.6,0.1-1.1v-0.8h1.6v0.9c0,0.6-0.1,1.1-0.2,1.5c-0.1,0.4-0.3,0.8-0.6,1.1c-0.3,0.3-0.8,0.5-1.3,0.7
		c-0.6,0.1-1.3,0.2-2.2,0.2h-6.5c-0.9,0-1.6-0.1-2.2-0.3c-0.6-0.2-1-0.5-1.4-0.9c-0.4-0.4-0.6-0.9-0.7-1.5c-0.1-0.6-0.2-1.3-0.2-2.1
		V96.6z"/>
	<path class="st0" d="M781.2,93.4h-6.4V92h14.6v1.4h-6.4v11.3h-1.7V93.4z"/>
	<path class="st0" d="M793.6,96.6c0-0.8,0.1-1.5,0.2-2.1c0.1-0.6,0.4-1.1,0.7-1.5c0.4-0.4,0.8-0.7,1.4-0.9c0.6-0.2,1.3-0.3,2.2-0.3
		h7.3c0.9,0,1.6,0.1,2.2,0.3c0.6,0.2,1,0.5,1.4,0.9c0.4,0.4,0.6,0.9,0.8,1.5c0.2,0.6,0.2,1.3,0.2,2.1v3.5c0,0.8-0.1,1.5-0.2,2.1
		c-0.2,0.6-0.4,1.1-0.8,1.5c-0.4,0.4-0.8,0.7-1.4,0.9c-0.6,0.2-1.3,0.3-2.2,0.3h-7.3c-0.9,0-1.6-0.1-2.2-0.3c-0.6-0.2-1-0.5-1.4-0.9
		c-0.4-0.4-0.6-0.9-0.7-1.5c-0.1-0.6-0.2-1.3-0.2-2.1V96.6z M808.3,96c0-0.6-0.1-1-0.2-1.4c-0.2-0.3-0.4-0.6-0.6-0.8
		c-0.3-0.2-0.6-0.3-0.9-0.4c-0.4-0.1-0.7-0.1-1.2-0.1h-7c-0.4,0-0.8,0-1.2,0.1c-0.4,0.1-0.7,0.2-0.9,0.4c-0.3,0.2-0.5,0.5-0.6,0.8
		c-0.2,0.4-0.2,0.8-0.2,1.4v4.8c0,0.5,0.1,1,0.2,1.3c0.2,0.4,0.4,0.6,0.6,0.8c0.3,0.2,0.6,0.3,0.9,0.4c0.4,0.1,0.7,0.1,1.2,0.1h7
		c0.4,0,0.8,0,1.2-0.1c0.4-0.1,0.7-0.2,0.9-0.4c0.3-0.2,0.5-0.5,0.6-0.8c0.2-0.4,0.2-0.8,0.2-1.3V96z"/>
	<path class="st0" d="M815.6,92h10.2c0.9,0,1.6,0.1,2.2,0.2c0.6,0.2,1,0.4,1.3,0.7c0.3,0.3,0.5,0.7,0.6,1.1c0.1,0.5,0.2,1,0.2,1.6v1
		c0,0.4-0.1,0.8-0.2,1.1c-0.1,0.3-0.3,0.5-0.5,0.7c-0.2,0.2-0.5,0.3-0.7,0.4c-0.3,0.1-0.6,0.1-0.9,0.2v0c0.4,0.1,0.8,0.2,1.1,0.3
		c0.3,0.1,0.5,0.3,0.7,0.5c0.2,0.2,0.3,0.4,0.3,0.7c0.1,0.3,0.1,0.5,0.1,0.8v3.2h-1.6v-2.8c0-0.5-0.1-0.9-0.2-1.2
		c-0.1-0.3-0.3-0.5-0.5-0.7c-0.2-0.2-0.5-0.3-0.8-0.3c-0.3,0-0.7-0.1-1.1-0.1h-8.4v5h-1.7V92z M825.5,98.3c1,0,1.7-0.1,2.1-0.4
		c0.4-0.3,0.6-0.8,0.6-1.4v-1.2c0-0.3,0-0.6-0.1-0.9c-0.1-0.2-0.2-0.4-0.5-0.6c-0.2-0.1-0.6-0.3-1-0.3c-0.4-0.1-0.9-0.1-1.6-0.1
		h-7.8v4.9H825.5z"/>
	<path class="st0" d="M835.3,100.7h1.6v0.9c0,0.3,0,0.6,0.1,0.8c0.1,0.2,0.2,0.4,0.5,0.6c0.2,0.2,0.5,0.3,0.9,0.3
		c0.4,0.1,0.8,0.1,1.3,0.1h5.3c0.6,0,1.1,0,1.6-0.1c0.4-0.1,0.7-0.2,1-0.4c0.2-0.2,0.4-0.4,0.5-0.7c0.1-0.3,0.2-0.7,0.2-1.1
		c0-0.4,0-0.7-0.1-1c-0.1-0.3-0.2-0.5-0.4-0.6c-0.2-0.2-0.5-0.3-0.9-0.3c-0.4-0.1-0.8-0.1-1.3-0.1h-3.3c-1.3,0-2.4,0-3.3-0.1
		c-0.9-0.1-1.6-0.2-2.2-0.5c-0.5-0.2-0.9-0.6-1.2-1.1c-0.2-0.5-0.4-1.2-0.4-2c0-0.7,0.1-1.3,0.3-1.8c0.2-0.5,0.5-0.8,1-1.1
		c0.4-0.3,1-0.4,1.6-0.5c0.7-0.1,1.4-0.2,2.3-0.2h3.7c1.1,0,1.9,0.1,2.6,0.2c0.7,0.1,1.2,0.3,1.6,0.6c0.4,0.3,0.7,0.6,0.8,1.1
		c0.2,0.4,0.2,0.9,0.2,1.5v0.4H848c0-0.5-0.1-0.9-0.1-1.2c-0.1-0.3-0.3-0.6-0.6-0.7c-0.3-0.2-0.8-0.3-1.4-0.3
		c-0.6-0.1-1.5-0.1-2.6-0.1h-1.8c-0.8,0-1.5,0-2.1,0.1c-0.6,0-1,0.1-1.4,0.3c-0.3,0.2-0.6,0.4-0.8,0.7c-0.2,0.3-0.2,0.7-0.2,1.2
		c0,0.4,0,0.7,0.1,0.9c0.1,0.3,0.2,0.5,0.5,0.6c0.2,0.2,0.6,0.3,1,0.3c0.4,0.1,1,0.1,1.6,0.1h5.1c1.7,0,2.9,0.3,3.6,0.8
		c0.8,0.5,1.1,1.3,1.1,2.4v0.8c0,0.8-0.1,1.4-0.4,1.8c-0.3,0.4-0.7,0.8-1.2,1c-0.5,0.2-1,0.4-1.6,0.4c-0.6,0.1-1.2,0.1-1.9,0.1H840
		c-0.6,0-1.2,0-1.8-0.1c-0.6-0.1-1.1-0.2-1.5-0.5c-0.4-0.2-0.8-0.6-1-1c-0.3-0.4-0.4-1-0.4-1.7V100.7z"/>
</g>
<g>
	<path class="st0" d="M384.6,73.3h-10.2l0.3-26.4l-17.1,26.4h-9.4L331,47l0.5,26.3h-10.2V41.9h16.8l14.6,23.3h0.3l14.5-23.3h17.1
		V73.3z"/>
	<path class="st0" d="M407.2,55.1h25.5v4.4h-25.5v8.9h27v4.9h-37.1V41.9h36.9v5h-26.8V55.1z"/>
	<path class="st0" d="M480.7,62.1h10.2c0,0.3,0,0.5,0,0.7c0,0.2,0,0.4,0,0.6c0,0.2,0,0.4,0,0.7c0,0.2,0,0.4,0,0.7
		c0,3.7-1.8,6.1-5.5,7.2c-3.7,1.1-8.3,1.6-14,1.6h-7.2c-7.7,0-12.7-1.1-15.1-3.3c-2.4-2.2-3.7-5.3-3.7-9.3c0-0.4,0-0.8,0-1.2
		c0-0.4,0-0.8,0-1.2c0-0.2,0-0.4,0-0.6c0-0.2,0-0.4,0-0.6c0-0.6,0-1.1,0-1.7c0-0.6,0-1.2,0-1.7c0-5.3,2-8.6,6.1-10.1
		c4.1-1.4,10.2-2.2,18.4-2.2l3.5,0c0.4,0,0.7,0,1.1,0c0.4,0,0.7,0,1.1,0c2.4,0.1,4.8,0.3,7,0.7c2.3,0.4,4.1,1.2,5.5,2.4
		c1,0.8,1.6,1.7,1.9,2.7c0.3,1,0.5,1.9,0.5,2.8c0,0.2,0,0.3,0,0.5c0,0.2,0,0.3,0,0.5c0,0.2,0,0.4,0,0.6c0,0.2,0,0.4,0,0.6l-10.3,0
		c-0.1-0.2-0.2-0.4-0.2-0.7c0-0.2-0.1-0.5-0.1-0.8c0-0.1,0-0.1,0-0.2c0,0,0-0.1,0-0.2c-0.1-0.9-0.3-1.7-0.9-2.4
		c-0.5-0.7-2.2-1.2-5-1.2c-0.8-0.1-1.5-0.1-2.3-0.1c-0.8,0-1.6,0-2.3,0h-1.8c-0.5,0-1,0-1.5,0c-0.5,0-1.1,0-1.6,0
		c-1.2,0.1-2.3,0.2-3.5,0.3c-1.1,0.2-2,0.4-2.6,0.8c-0.7,0.4-1.1,0.9-1.4,1.4c-0.3,0.5-0.5,1-0.5,1.6c-0.1,0.2-0.1,0.4-0.1,0.7
		c0,0.2,0,0.4,0,0.7c-0.1,0.5-0.1,1-0.1,1.5c0,0.5,0,1,0,1.5c0,1,0,2,0,3c0,1,0.1,2,0.1,3c0.1,3.1,1,5.1,2.8,5.8
		c1.8,0.7,5.3,1.1,10.4,1.1c3,0,5.7-0.2,7.9-0.6c2.3-0.4,3.4-1.6,3.4-3.8c0-0.2,0-0.3,0-0.5c0-0.2,0-0.3,0-0.5
		c-0.1-0.2-0.1-0.3-0.1-0.5C480.7,62.4,480.7,62.3,480.7,62.1L480.7,62.1z"/>
	<path class="st0" d="M547.5,73.3h-10.4V59.9h-25.3v13.4h-10.3V41.9h10.3v12.8h25.3V41.9h10.4V73.3z"/>
	<path class="st0" d="M570.3,67.3l-3.3,6h-10.8l18.1-31.3h15.3l18.4,31.3h-10.6l-3.5-6H570.3z M582,46.5l-9.3,16.3h18.7L582,46.5z"
		/>
	<path class="st0" d="M666.8,73.3h-17.3l-22.9-26.2h-0.3l0.3,26.2h-10.1V41.9h17.2l22.9,26.2h0.3l-0.3-26.2h10.2V73.3z"/>
	<path class="st0" d="M690.8,73.3h-10.4V41.9h10.4V73.3z"/>
	<path class="st0" d="M738.1,62.1h10.2c0,0.3,0,0.5,0,0.7c0,0.2,0,0.4,0,0.6c0,0.2,0,0.4,0,0.7c0,0.2,0,0.4,0,0.7
		c0,3.7-1.8,6.1-5.5,7.2c-3.7,1.1-8.3,1.6-14,1.6h-7.2c-7.6,0-12.7-1.1-15.1-3.3c-2.4-2.2-3.7-5.3-3.7-9.3c0-0.4,0-0.8,0-1.2
		c0-0.4,0-0.8,0-1.2c0-0.2,0-0.4,0-0.6c0-0.2,0-0.4,0-0.6c0-0.6,0-1.1,0-1.7c0-0.6,0-1.2,0-1.7c0-5.3,2-8.6,6.1-10.1
		c4.1-1.4,10.2-2.2,18.4-2.2l3.5,0c0.4,0,0.7,0,1.1,0c0.4,0,0.7,0,1.1,0c2.4,0.1,4.8,0.3,7,0.7c2.3,0.4,4.1,1.2,5.5,2.4
		c1,0.8,1.6,1.7,1.9,2.7c0.3,1,0.5,1.9,0.5,2.8c0,0.2,0,0.3,0,0.5c0,0.2,0,0.3,0,0.5c0,0.2,0,0.4,0,0.6c0,0.2,0,0.4,0,0.6l-10.3,0
		c-0.1-0.2-0.2-0.4-0.2-0.7c0-0.2-0.1-0.5-0.1-0.8c0-0.1,0-0.1,0-0.2c0,0,0-0.1,0-0.2c-0.1-0.9-0.3-1.7-0.9-2.4
		c-0.5-0.7-2.2-1.2-5-1.2c-0.8-0.1-1.5-0.1-2.3-0.1c-0.8,0-1.6,0-2.3,0h-1.8c-0.5,0-1,0-1.5,0c-0.5,0-1.1,0-1.6,0
		c-1.2,0.1-2.3,0.2-3.5,0.3c-1.1,0.2-2,0.4-2.6,0.8c-0.7,0.4-1.1,0.9-1.4,1.4c-0.3,0.5-0.5,1-0.5,1.6c-0.1,0.2-0.1,0.4-0.1,0.7
		c0,0.2,0,0.4,0,0.7c-0.1,0.5-0.1,1-0.1,1.5c0,0.5,0,1,0,1.5c0,1,0,2,0,3c0,1,0.1,2,0.1,3c0.1,3.1,1,5.1,2.8,5.8
		c1.8,0.7,5.3,1.1,10.4,1.1c3,0,5.7-0.2,7.9-0.6c2.3-0.4,3.4-1.6,3.4-3.8c0-0.2,0-0.3,0-0.5c0-0.2,0-0.3,0-0.5
		c-0.1-0.2-0.1-0.3-0.1-0.5C738.1,62.4,738.1,62.3,738.1,62.1L738.1,62.1z"/>
	<path class="st0" d="M768,67.3l-3.3,6h-10.8l18.1-31.3h15.3l18.4,31.3H795l-3.5-6H768z M779.7,46.5l-9.3,16.3h18.7L779.7,46.5z"/>
	<path class="st0" d="M824.8,68h25.1v5.3h-35.7V41.9h10.6V68z"/>
</g>
<linearGradient id="SVGID_1_" gradientUnits="userSpaceOnUse" x1="70.8089" y1="70.1672" x2="-296.7686" y2="70.1672">
	<stop  offset="0" style="stop-color:#ED1C24"/>
	<stop  offset="1" style="stop-color:#BC141A"/>
</linearGradient>
<path class="st1" d="M171.5,0.5c0,0,3.1,7.8-0.4,21H94.7l-12.2,50L75,44.3c-2.2-8.7-4.3-16.3-6.3-22.8H0v107.2h46.4L46.4,58
	l19.5,70.7h32.9l18.5-72.4l0.1,72.4h0.1c0,4.8,1.3,8.6,4.1,11.1c0,0-3.5-33.1,23.7-65.5C172.5,41.9,187.9,20.9,171.5,0.5z"/>
<linearGradient id="SVGID_2_" gradientUnits="userSpaceOnUse" x1="189.6656" y1="69.2446" x2="487.3849" y2="69.2446">
	<stop  offset="0" style="stop-color:#008AD0"/>
	<stop  offset="1" style="stop-color:#0070B4"/>
</linearGradient>
<path class="st2" d="M227.7,21.5l-12.2,50l-7.5-27.3c-2.2-8.7-4.3-16.3-6.3-22.7c2.2-6.8,2.7-13.7,1.3-21.6c0,0,1.8,19.9-22.2,46.7
	c-31.3,35-52.9,67.1-49.6,91.8c0,0,0.8-3.7,2.8-9.8h45.4l0.1-70.7l19.5,70.7h32.9l18.5-72.4l0.1,72.4h46.4V21.5H227.7z"/>
</svg>
